<?xml version="1.0" encoding="UTF-8"?>
<svg width="75px" height="75px" viewBox="0 0 75 75" version="1.1" xmlns="http://www.w3.org/2000/svg" xmlns:xlink="http://www.w3.org/1999/xlink">
    <title>Untitled 12</title>
    <g id="Page-1" stroke="none" stroke-width="1" fill="none" fill-rule="evenodd">
        <g id="monologo" transform="translate(0.025000, 0.025000)" fill="#000000" fill-rule="nonzero">
            <path d="M74.275,36.575 L74.275,13.175 C74.275,11.775 73.075,10.575 71.675,10.575 L53.075,10.575 C52.475,-3.525 32.375,-3.525 31.775,10.575 L13.175,10.575 C11.775,10.575 10.575,11.775 10.575,13.175 L10.575,31.775 C-3.525,32.375 -3.525,52.475 10.575,53.075 L10.575,71.675 C10.575,73.075 11.775,74.275 13.175,74.275 L36.575,74.275 C37.975,74.275 39.175,72.975 39.175,71.475 C39.175,70.775 38.975,70.275 38.475,69.775 C33.875,64.375 41.475,57.575 46.275,62.575 C48.175,64.575 48.175,67.675 46.275,69.775 C45.275,70.875 45.375,72.575 46.475,73.475 C46.875,73.875 47.575,74.175 48.275,74.175 L71.675,74.175 C73.075,74.175 74.275,72.975 74.275,71.575 L74.275,48.175 C74.275,46.775 74.275,37.175 74.275,36.575 Z M68.975,52.775 L68.975,69.075 L52.675,69.075 C54.075,63.375 50.675,57.575 45.075,56.075 C39.375,54.675 33.575,58.075 32.075,63.675 C31.675,65.475 31.675,67.275 32.075,69.075 L15.775,69.075 L15.775,50.075 C15.775,48.675 14.575,47.475 13.175,47.475 C12.275,47.675 11.375,47.775 10.575,47.875 C3.475,47.675 3.475,37.375 10.575,37.275 C11.275,37.275 11.775,37.375 12.375,37.575 C13.775,37.975 15.275,37.375 15.775,35.875 C15.875,35.675 15.875,35.275 15.875,34.975 L15.875,15.875 L34.975,15.875 C36.375,15.875 37.575,14.675 37.575,13.275 C37.575,12.975 37.575,12.675 37.475,12.375 C36.475,9.575 37.875,6.575 40.775,5.675 C43.575,4.675 46.575,6.075 47.475,8.975 C47.675,9.575 47.775,10.075 47.775,10.775 C47.775,11.375 47.675,11.975 47.475,12.575 C47.075,13.975 47.675,15.475 49.175,15.975 C49.475,16.075 49.775,16.075 50.075,16.075 L69.175,16.075 L69.175,32.375 L68.975,52.775 Z" id="Shape"></path>
        </g>
        <g id="icons8-people-100" transform="translate(19.000000, 18.000000)" fill="#000000" fill-rule="nonzero">
            <g id="Group" transform="translate(23.500000, 18.000000) scale(-1, 1) rotate(-180.000000) translate(-23.500000, -18.000000) translate(0.000000, 0.000000)">
                <path d="M21.3636364,35.4822112 C19.179798,34.7232345 17.0434343,32.968101 16.2363636,31.1655314 C15.1444444,28.9360375 15.3818182,21.298835 16.5212121,20.0180619 C16.9484848,19.5437015 17.3282828,18.8321609 17.3282828,18.4526725 C17.3282828,18.0731842 17.7555556,17.0770274 18.2777778,16.2231786 C19.3222222,14.5154812 19.5121212,12.3334233 18.7050505,10.81547 C18.420202,10.2936735 16.3313131,9.01290044 14.1,7.96930754 C9.63737374,5.92955779 8.16565657,4.79109282 7.02626263,2.70390703 C5.6020202,-0.047383334 5.31717172,0 23.5,0 C41.6828283,0 41.3979798,-0.047383334 39.9737374,2.70390703 C38.8343434,4.79109282 37.3626263,5.92955779 32.9,7.96930754 C30.6686869,9.01290044 28.579798,10.2936735 28.2949495,10.81547 C27.6777778,12.001371 27.630303,15.0372776 28.2,15.4167659 C28.4373737,15.5590741 28.9121212,16.4603588 29.2444444,17.4565157 C29.5292929,18.4052365 30.0989899,19.5911375 30.4787879,20.0180619 C31.5707071,21.2513989 31.7606061,28.4142411 30.8111111,30.8334792 C30.0515152,32.6834847 28.2474747,34.154002 26.6333333,34.154002 C26.2535354,34.154002 25.7787879,34.5809264 25.6363636,35.1027228 C25.3040404,36.1463157 23.7373737,36.2886238 21.3636364,35.4822112 Z" id="Path"></path>
                <path d="M10.3494949,30.3591188 C7.40606061,29.0309096 6.40909091,27.133468 6.5040404,23.0065324 C6.55151515,20.3975502 6.88383838,19.1642131 7.92828283,17.1244634 C10.1121212,12.9026558 9.87474747,12.2385512 5.12727273,9.96162125 C1.70909091,8.34879587 0.18989899,6.73597049 0.0949494949,4.6487847 L0,3.08339535 L2.46868687,2.94108723 C4.79494949,2.79877911 4.98484848,2.89365119 5.6969697,4.26929637 C6.64646465,6.11930196 9.4,8.11161567 12.9131313,9.48726085 C16.1888889,10.81547 17.3282828,11.6693187 17.3282828,12.9500918 C17.3282828,13.8039406 16.0464646,16.697539 14.2424242,19.9231898 C13.7676768,20.7770385 13.5777778,22.532172 13.6727273,26.1847472 C13.8151515,31.9719441 13.8151515,31.9719441 10.3494949,30.3591188 Z" id="Path"></path>
                <path d="M33.1848485,25.947567 C33.1373737,20.7770385 33.089899,20.5398583 31.4282828,17.3616436 C28.7222222,12.3334233 29.0070707,11.4795746 34.0868687,9.48726085 C37.6,8.11161567 40.3535354,6.11930196 41.3030303,4.26929637 C42.0151515,2.89365119 42.2050505,2.79877911 44.5313131,2.94108723 L47,3.08339535 L46.9525253,4.8859649 C46.8575758,7.25776693 45.8131313,8.30135983 41.3979798,10.4359817 C37.2676768,12.4282954 37.030303,13.2347081 39.1191919,17.1244634 C40.4010101,19.5437015 40.4959596,20.16037 40.4484848,23.670637 C40.3535354,27.3232122 40.2585859,27.6552644 39.0242424,28.7462934 C38.3121212,29.3629619 35.2737374,31.3078396 34.5616162,31.3078396 L33.2323232,31.3078396 L33.1848485,25.947567 Z" id="Path"></path>
            </g>
        </g>
    </g>
</svg>